<mxfile host="app.diagrams.net" agent="Mozilla/5.0 (X11; Linux x86_64; rv:130.0) Gecko/20100101 Firefox/130.0" version="24.8.2">
  <diagram name="Page-1" id="c37626ed-c26b-45fb-9056-f9ebc6bb27b6">
    <mxGraphModel dx="1050" dy="639" grid="1" gridSize="10" guides="1" tooltips="1" connect="1" arrows="1" fold="1" page="1" pageScale="1" pageWidth="1100" pageHeight="850" background="none" math="0" shadow="0">
      <root>
        <mxCell id="0" />
        <mxCell id="1" parent="0" />
        <mxCell id="1c7a67bf8fd3230f-83" value="CORE" style="whiteSpace=wrap;html=1;rounded=0;shadow=0;comic=0;strokeWidth=1;fontFamily=Verdana;fontSize=14;fillColor=#f5f5f5;strokeColor=none;verticalAlign=top;fontStyle=1" parent="1" vertex="1">
          <mxGeometry x="890" y="230" width="420" height="240" as="geometry" />
        </mxCell>
        <mxCell id="1c7a67bf8fd3230f-82" value="&lt;div&gt;Distribution 2&lt;/div&gt;" style="whiteSpace=wrap;html=1;rounded=0;shadow=0;comic=0;strokeWidth=1;fontFamily=Verdana;fontSize=14;fillColor=#f5f5f5;strokeColor=none;fontStyle=1;verticalAlign=top;" parent="1" vertex="1">
          <mxGeometry x="1280" y="520" width="370" height="240" as="geometry" />
        </mxCell>
        <mxCell id="1c7a67bf8fd3230f-81" value="&lt;div&gt;Access 1&lt;/div&gt;" style="whiteSpace=wrap;html=1;rounded=0;shadow=0;comic=0;strokeWidth=1;fontFamily=Verdana;fontSize=14;fillColor=#f5f5f5;strokeColor=none;fontStyle=1;verticalAlign=top;" parent="1" vertex="1">
          <mxGeometry x="467" y="839.5" width="550" height="201" as="geometry" />
        </mxCell>
        <mxCell id="1c7a67bf8fd3230f-80" value="Distribution 1" style="whiteSpace=wrap;html=1;rounded=0;shadow=0;comic=0;strokeWidth=1;fontFamily=Verdana;fontSize=14;fillColor=#f5f5f5;strokeColor=none;fontStyle=1;verticalAlign=top;" parent="1" vertex="1">
          <mxGeometry x="550" y="520" width="384" height="240" as="geometry" />
        </mxCell>
        <mxCell id="1c7a67bf8fd3230f-42" style="edgeStyle=none;html=1;labelBackgroundColor=none;startFill=0;endArrow=none;endFill=0;strokeWidth=2;fontFamily=Verdana;fontSize=12;" parent="1" edge="1">
          <mxGeometry relative="1" as="geometry">
            <mxPoint x="1304" y="519" as="sourcePoint" />
          </mxGeometry>
        </mxCell>
        <mxCell id="1c7a67bf8fd3230f-43" style="edgeStyle=none;html=1;labelBackgroundColor=none;startFill=0;endArrow=none;endFill=0;strokeWidth=2;fontFamily=Verdana;fontSize=12;" parent="1" edge="1">
          <mxGeometry relative="1" as="geometry">
            <mxPoint x="1412" y="506.1264367816091" as="sourcePoint" />
          </mxGeometry>
        </mxCell>
        <mxCell id="1c7a67bf8fd3230f-44" style="edgeStyle=none;html=1;labelBackgroundColor=none;startFill=0;endArrow=none;endFill=0;strokeWidth=2;fontFamily=Verdana;fontSize=12;" parent="1" edge="1">
          <mxGeometry relative="1" as="geometry">
            <mxPoint x="1412" y="525.231884057971" as="sourcePoint" />
          </mxGeometry>
        </mxCell>
        <mxCell id="1c7a67bf8fd3230f-66" style="edgeStyle=none;html=1;labelBackgroundColor=none;startFill=0;endArrow=none;endFill=0;strokeWidth=2;fontFamily=Verdana;fontSize=12;" parent="1" edge="1">
          <mxGeometry relative="1" as="geometry">
            <mxPoint x="827.9716312056735" y="942" as="sourcePoint" />
          </mxGeometry>
        </mxCell>
        <mxCell id="1c7a67bf8fd3230f-67" style="edgeStyle=none;html=1;labelBackgroundColor=none;startFill=0;endArrow=none;endFill=0;strokeWidth=2;fontFamily=Verdana;fontSize=12;" parent="1" edge="1">
          <mxGeometry relative="1" as="geometry">
            <mxPoint x="764" y="1040" as="sourcePoint" />
          </mxGeometry>
        </mxCell>
        <mxCell id="1c7a67bf8fd3230f-75" style="edgeStyle=none;html=1;labelBackgroundColor=none;startFill=0;endArrow=none;endFill=0;strokeWidth=2;fontFamily=Verdana;fontSize=12;" parent="1" edge="1">
          <mxGeometry relative="1" as="geometry">
            <mxPoint x="1289.5016181229776" y="1316" as="targetPoint" />
          </mxGeometry>
        </mxCell>
        <mxCell id="1c7a67bf8fd3230f-76" style="edgeStyle=none;html=1;labelBackgroundColor=none;startFill=0;endArrow=none;endFill=0;strokeWidth=2;fontFamily=Verdana;fontSize=12;" parent="1" edge="1">
          <mxGeometry relative="1" as="geometry">
            <mxPoint x="1185.3398058252428" y="1316" as="targetPoint" />
          </mxGeometry>
        </mxCell>
        <mxCell id="1c7a67bf8fd3230f-77" style="edgeStyle=none;html=1;labelBackgroundColor=none;startFill=0;endArrow=none;endFill=0;strokeWidth=2;fontFamily=Verdana;fontSize=12;" parent="1" edge="1">
          <mxGeometry relative="1" as="geometry">
            <mxPoint x="1099.2556634304206" y="1316" as="targetPoint" />
          </mxGeometry>
        </mxCell>
        <mxCell id="1c7a67bf8fd3230f-71" style="edgeStyle=none;html=1;labelBackgroundColor=none;startFill=0;endArrow=none;endFill=0;strokeWidth=2;fontFamily=Verdana;fontSize=12;" parent="1" edge="1">
          <mxGeometry relative="1" as="geometry">
            <mxPoint x="1483" y="1050" as="targetPoint" />
          </mxGeometry>
        </mxCell>
        <mxCell id="1c7a67bf8fd3230f-72" style="edgeStyle=none;html=1;labelBackgroundColor=none;startFill=0;endArrow=none;endFill=0;strokeWidth=2;fontFamily=Verdana;fontSize=12;" parent="1" edge="1">
          <mxGeometry relative="1" as="geometry">
            <mxPoint x="1470" y="1136.2035928143712" as="targetPoint" />
          </mxGeometry>
        </mxCell>
        <mxCell id="1c7a67bf8fd3230f-73" style="edgeStyle=none;html=1;labelBackgroundColor=none;startFill=0;endArrow=none;endFill=0;strokeWidth=2;fontFamily=Verdana;fontSize=12;" parent="1" edge="1">
          <mxGeometry relative="1" as="geometry">
            <mxPoint x="1647.0938511326863" y="1316" as="targetPoint" />
          </mxGeometry>
        </mxCell>
        <mxCell id="1c7a67bf8fd3230f-74" style="edgeStyle=none;html=1;labelBackgroundColor=none;startFill=0;endArrow=none;endFill=0;strokeWidth=2;fontFamily=Verdana;fontSize=12;" parent="1" edge="1">
          <mxGeometry relative="1" as="geometry">
            <mxPoint x="1559.2880258899677" y="1316" as="targetPoint" />
          </mxGeometry>
        </mxCell>
        <mxCell id="3qHpSIvOvftQ2MxYyuhb-3" value="" style="shape=mxgraph.cisco.switches.layer_3_switch;sketch=0;html=1;pointerEvents=1;dashed=0;fillColor=#036897;strokeColor=#ffffff;strokeWidth=2;verticalLabelPosition=bottom;verticalAlign=top;align=center;outlineConnect=0;" parent="1" vertex="1">
          <mxGeometry x="620" y="608" width="64" height="64" as="geometry" />
        </mxCell>
        <mxCell id="3qHpSIvOvftQ2MxYyuhb-4" value="" style="shape=mxgraph.cisco.switches.layer_3_switch;sketch=0;html=1;pointerEvents=1;dashed=0;fillColor=#036897;strokeColor=#ffffff;strokeWidth=2;verticalLabelPosition=bottom;verticalAlign=top;align=center;outlineConnect=0;" parent="1" vertex="1">
          <mxGeometry x="810" y="608" width="64" height="64" as="geometry" />
        </mxCell>
        <mxCell id="3qHpSIvOvftQ2MxYyuhb-5" value="" style="shape=mxgraph.cisco.switches.layer_3_switch;sketch=0;html=1;pointerEvents=1;dashed=0;fillColor=#036897;strokeColor=#ffffff;strokeWidth=2;verticalLabelPosition=bottom;verticalAlign=top;align=center;outlineConnect=0;" parent="1" vertex="1">
          <mxGeometry x="1350" y="608" width="64" height="64" as="geometry" />
        </mxCell>
        <mxCell id="3qHpSIvOvftQ2MxYyuhb-6" value="" style="shape=mxgraph.cisco.switches.layer_3_switch;sketch=0;html=1;pointerEvents=1;dashed=0;fillColor=#036897;strokeColor=#ffffff;strokeWidth=2;verticalLabelPosition=bottom;verticalAlign=top;align=center;outlineConnect=0;" parent="1" vertex="1">
          <mxGeometry x="1520" y="608" width="64" height="64" as="geometry" />
        </mxCell>
        <mxCell id="3qHpSIvOvftQ2MxYyuhb-7" value="" style="shape=mxgraph.cisco.switches.workgroup_switch;sketch=0;html=1;pointerEvents=1;dashed=0;fillColor=#036897;strokeColor=#ffffff;strokeWidth=2;verticalLabelPosition=bottom;verticalAlign=top;align=center;outlineConnect=0;" parent="1" vertex="1">
          <mxGeometry x="519" y="915" width="101" height="50" as="geometry" />
        </mxCell>
        <mxCell id="3qHpSIvOvftQ2MxYyuhb-8" value="" style="shape=mxgraph.cisco.switches.workgroup_switch;sketch=0;html=1;pointerEvents=1;dashed=0;fillColor=#036897;strokeColor=#ffffff;strokeWidth=2;verticalLabelPosition=bottom;verticalAlign=top;align=center;outlineConnect=0;" parent="1" vertex="1">
          <mxGeometry x="684" y="915" width="101" height="50" as="geometry" />
        </mxCell>
        <mxCell id="3qHpSIvOvftQ2MxYyuhb-9" value="" style="shape=mxgraph.cisco.switches.workgroup_switch;sketch=0;html=1;pointerEvents=1;dashed=0;fillColor=#036897;strokeColor=#ffffff;strokeWidth=2;verticalLabelPosition=bottom;verticalAlign=top;align=center;outlineConnect=0;" parent="1" vertex="1">
          <mxGeometry x="860" y="915" width="101" height="50" as="geometry" />
        </mxCell>
        <mxCell id="3qHpSIvOvftQ2MxYyuhb-10" value="&lt;div&gt;Access 2&lt;br&gt;&lt;/div&gt;" style="whiteSpace=wrap;html=1;rounded=0;shadow=0;comic=0;strokeWidth=1;fontFamily=Verdana;fontSize=14;fillColor=#f5f5f5;strokeColor=none;fontStyle=1;verticalAlign=top;" parent="1" vertex="1">
          <mxGeometry x="1190" y="839.5" width="550" height="201" as="geometry" />
        </mxCell>
        <mxCell id="3qHpSIvOvftQ2MxYyuhb-11" value="" style="shape=mxgraph.cisco.switches.workgroup_switch;sketch=0;html=1;pointerEvents=1;dashed=0;fillColor=#036897;strokeColor=#ffffff;strokeWidth=2;verticalLabelPosition=bottom;verticalAlign=top;align=center;outlineConnect=0;" parent="1" vertex="1">
          <mxGeometry x="1242" y="915" width="101" height="50" as="geometry" />
        </mxCell>
        <mxCell id="3qHpSIvOvftQ2MxYyuhb-12" value="" style="shape=mxgraph.cisco.switches.workgroup_switch;sketch=0;html=1;pointerEvents=1;dashed=0;fillColor=#036897;strokeColor=#ffffff;strokeWidth=2;verticalLabelPosition=bottom;verticalAlign=top;align=center;outlineConnect=0;" parent="1" vertex="1">
          <mxGeometry x="1407" y="915" width="101" height="50" as="geometry" />
        </mxCell>
        <mxCell id="3qHpSIvOvftQ2MxYyuhb-13" value="" style="shape=mxgraph.cisco.switches.workgroup_switch;sketch=0;html=1;pointerEvents=1;dashed=0;fillColor=#036897;strokeColor=#ffffff;strokeWidth=2;verticalLabelPosition=bottom;verticalAlign=top;align=center;outlineConnect=0;" parent="1" vertex="1">
          <mxGeometry x="1583" y="915" width="101" height="50" as="geometry" />
        </mxCell>
        <mxCell id="VkiDXqV1t_4y2jCt5u3G-2" value="" style="shape=mxgraph.cisco.switches.layer_3_switch;sketch=0;html=1;pointerEvents=1;dashed=0;fillColor=#036897;strokeColor=#ffffff;strokeWidth=2;verticalLabelPosition=bottom;verticalAlign=top;align=center;outlineConnect=0;" vertex="1" parent="1">
          <mxGeometry x="960" y="305" width="90" height="90" as="geometry" />
        </mxCell>
        <mxCell id="VkiDXqV1t_4y2jCt5u3G-3" value="" style="shape=mxgraph.cisco.switches.layer_3_switch;sketch=0;html=1;pointerEvents=1;dashed=0;fillColor=#036897;strokeColor=#ffffff;strokeWidth=2;verticalLabelPosition=bottom;verticalAlign=top;align=center;outlineConnect=0;" vertex="1" parent="1">
          <mxGeometry x="1152" y="305" width="90" height="90" as="geometry" />
        </mxCell>
      </root>
    </mxGraphModel>
  </diagram>
</mxfile>
